<svg width="137" height="32" viewBox="0 0 137 32" fill="none" xmlns="http://www.w3.org/2000/svg">
<circle cx="16" cy="16" r="16" fill="black"/>
<circle cx="16" cy="16" r="2.30631" fill="#ECEDEE"/>
<circle cx="16" cy="25.5135" r="3.02703" fill="#FFB224"/>
<circle cx="16" cy="6.48648" r="3.02703" fill="#6E56CF"/>
<circle cx="24.2389" cy="20.7567" r="3.02703" transform="rotate(-60 24.2389 20.7567)" fill="#E54D2E"/>
<circle cx="7.76109" cy="11.2432" r="3.02703" transform="rotate(-60 7.76109 11.2432)" fill="#05A2C2"/>
<circle cx="24.239" cy="11.2432" r="3.02703" transform="rotate(-120 24.239 11.2432)" fill="#E93D82"/>
<ellipse cx="7.76104" cy="20.7568" rx="3.02703" ry="3.02703" transform="rotate(-120 7.76104 20.7568)" fill="#46A758"/>
<path d="M45.742 12.73C46.966 12.73 47.866 13.324 48.388 14.206H48.424C49.09 13.162 50.332 12.73 51.25 12.73C53.158 12.73 54.364 13.99 54.364 15.844V22H52.204V16.438C52.204 15.088 51.574 14.584 50.602 14.584C49.612 14.584 48.91 15.088 48.91 16.456V22H46.75V16.384C46.75 15.088 46.066 14.584 45.13 14.584C44.086 14.584 43.456 15.214 43.456 16.528V22H41.278V13H42.952L43.294 14.08H43.33C43.96 13.108 44.842 12.73 45.742 12.73ZM56.2788 17.68V17.356C56.2788 14.386 58.4748 12.73 60.8688 12.73C63.2628 12.73 65.5128 14.386 65.5128 17.356V17.68C65.5128 20.632 63.2628 22.288 60.8688 22.288C58.4748 22.288 56.2788 20.632 56.2788 17.68ZM60.8868 14.53C59.2668 14.53 58.4748 15.826 58.4748 17.5C58.4748 19.174 59.2668 20.47 60.8868 20.47C62.5068 20.47 63.3168 19.174 63.3168 17.5C63.3168 15.826 62.5068 14.53 60.8868 14.53ZM69.7705 22H67.5925V13H69.2665L69.6085 14.098H69.6445C70.3285 13.126 71.2825 12.73 72.3445 12.73C74.3065 12.73 75.6385 14.08 75.6385 15.934V22H73.4785V16.582C73.4785 15.196 72.7405 14.584 71.6785 14.584C70.5085 14.584 69.7705 15.232 69.7705 16.6V22ZM80.3635 13H82.6495V14.692H80.3635V19.336C80.3635 20.146 80.8135 20.344 81.3535 20.344C81.8395 20.344 82.2355 20.182 82.6135 19.93H82.9195V21.712C82.4515 21.964 81.5695 22.162 81.1015 22.162C79.2295 22.162 78.1675 21.226 78.1675 19.138V14.692H76.9435V13.702C78.3475 13.036 78.9595 12.046 79.4095 10.966H80.3635V13ZM87.9184 20.542C88.6924 20.542 89.7904 19.93 89.7904 18.868V18.202C89.3404 18.058 88.6924 17.95 88.1164 17.95C87.2704 17.95 86.3524 18.328 86.3524 19.246C86.3524 20.128 87.0364 20.542 87.9184 20.542ZM89.9884 21.028C89.4124 21.838 88.4584 22.288 87.3604 22.288C85.6324 22.288 84.1564 21.136 84.1564 19.444V19.3C84.1564 17.068 86.2084 16.366 88.0984 16.366C88.6024 16.366 89.2504 16.438 89.7904 16.564V16.24C89.7904 15.196 89.6284 14.368 88.2064 14.368C87.4504 14.368 86.6944 14.674 86.6404 15.646H84.6784V15.43C84.8224 13.594 86.4244 12.73 88.1704 12.73C89.3764 12.73 90.4564 13.018 91.1764 13.792C91.6804 14.296 91.9684 15.214 91.9684 16.348V22H90.2944L90.0244 21.028H89.9884ZM98.1084 14.296C97.0284 14.296 96.3804 14.854 96.3804 15.808C96.3804 16.78 97.0644 17.356 98.1084 17.356C99.1344 17.356 99.8184 16.78 99.8184 15.808C99.8184 14.854 99.1524 14.296 98.1084 14.296ZM102.572 22.648C102.572 24.736 99.9984 25.492 97.9824 25.492C95.6244 25.492 93.6444 24.898 93.6444 23.08V22.954C93.6444 22.45 94.0584 21.532 94.8504 21.208C94.5084 20.902 94.2024 20.434 94.2024 19.804C94.2024 19.174 94.4904 18.562 95.2284 18.058C94.6524 17.572 94.3104 16.852 94.3104 15.952V15.754C94.3104 13.738 95.9844 12.712 98.1084 12.712C98.5044 12.712 98.8644 12.748 99.2244 12.82L100.628 11.182H102.572V11.434L100.826 13.504C101.474 14.008 101.87 14.746 101.87 15.718V15.934C101.87 17.932 100.124 18.94 98.0184 18.94C97.4424 18.94 96.9024 18.868 96.4344 18.706C96.2004 18.904 96.1104 19.21 96.1104 19.444C96.1104 19.948 96.4524 20.182 96.9924 20.182H99.4404C101.042 20.182 102.572 20.902 102.572 22.522V22.648ZM98.1084 23.854C99.6204 23.854 100.466 23.35 100.466 22.702C100.466 22.09 99.9624 21.874 99.1524 21.874H96.5964C96.1644 22.036 95.8224 22.468 95.8224 22.774C95.8224 23.53 96.3624 23.854 98.1084 23.854ZM107.87 12.73C110.354 12.73 112.172 14.53 112.172 17.266C112.172 17.68 112.136 18.184 112.136 18.184H105.62C105.8 19.552 106.574 20.506 107.96 20.506C108.968 20.506 109.58 20.182 109.94 19.39H112.064C111.596 21.298 109.994 22.288 107.888 22.288C105.404 22.288 103.388 20.398 103.388 17.662V17.374C103.388 14.638 105.386 12.73 107.87 12.73ZM109.94 16.474C109.868 15.376 109.238 14.512 107.942 14.512C106.61 14.512 105.944 15.304 105.674 16.474H109.94ZM114.226 10.3H119.248C122.182 10.3 124.936 12.244 124.936 15.934V16.366C124.936 20.11 122.182 22 119.23 22H114.226V10.3ZM119.086 12.622H117.16V19.678H119.05C121.012 19.678 121.858 18.256 121.858 16.096C121.858 13.954 120.958 12.622 119.086 12.622ZM126.381 13.666C126.381 11.02 128.667 10.084 130.791 10.084C133.059 10.084 135.003 10.912 135.201 13.216V13.45H132.375C132.321 12.784 131.907 12.262 130.881 12.262C129.873 12.262 129.369 12.712 129.369 13.324C129.369 14.098 129.891 14.314 130.683 14.53C131.871 14.89 133.653 15.214 134.535 16.096C135.021 16.582 135.453 17.464 135.453 18.346V18.526C135.453 21.334 133.059 22.27 130.791 22.27C128.343 22.27 126.363 21.352 126.147 18.868V18.616H129.045C129.081 19.66 129.819 20.11 130.899 20.11C131.907 20.11 132.537 19.588 132.537 18.922C132.537 18.31 132.339 17.95 131.313 17.626C130.017 17.158 128.145 16.888 127.281 16.024C126.813 15.556 126.381 14.656 126.381 13.846V13.666Z" fill="#171717"/>
</svg>
